<svg width="36" height="30" viewBox="0 0 36 30" fill="none" xmlns="http://www.w3.org/2000/svg">
<path d="M32.9309 0.264849C32.9309 0.264849 36.2611 -1.03372 35.9836 2.11995C35.8911 3.41854 35.0585 7.96354 34.411 12.8796L32.1908 27.4422C32.1908 27.4422 32.0058 29.5755 30.3407 29.9466C28.6755 30.3176 26.1778 28.648 25.7152 28.277C25.3452 27.9987 18.7773 23.8247 16.4645 21.7841C15.817 21.2276 15.0769 20.1145 16.557 18.8159L26.2703 9.54042C27.3804 8.42734 28.4905 5.8302 23.8651 8.98388L10.9141 17.7956C10.9141 17.7956 9.43398 18.7232 6.65881 17.8884L0.64579 16.0333C0.64579 16.0333 -1.57439 14.642 2.21842 13.2506C11.4692 8.89105 22.8476 4.4388 32.9309 0.264849Z" fill="white"/>
</svg>
